PathFileType   4   (X/Y/Z)
DataRate	CameraRate	NumFrames	NumMarkers	Units	OrigDataRate	OrigDataStartFrame	OrigNumFrames
120.0	120.0	7	37	mm	120.0	170	194
Frame#	Time	midhip	hip_r	hip_l	knee_r	knee_l	ankle_r	ankle_l	midasis	asis_r	asis_l	psis_r	psis_l	epicondLat_r	epicondLat_l	epicondMed_r	epicondMed_l	malleolusLat_r	malleolusLat_l	malleolusMedv_r	malleolusMedv_l	neck	subclavicle_r	subclavicle_l	sternalnotch	xyphoidprocess	thighwand_r	thighwand_l	upperleg1_r	upperleg1_l	upperleg2_r	upperleg2_l	shankwand_r	shankwand_l	lowerleg1_r	lowerleg1_l	toe_r	toe_l
 	 	X1	Y1	Z1	X2	Y2	Z2	X3	Y3	Z3	X4	Y4	Z4	X5	Y5	Z5	X6	Y6	Z6	X7	Y7	Z7	X8	Y8	Z8	X9	Y9	Z9	X10	Y10	Z10	X11	Y11	Z11	X12	Y12	Z12	X13	Y13	Z13	X14	Y14	Z14	X15	Y15	Z15	X16	Y16	Z16	X17	Y17	Z17	X18	Y18	Z18	X19	Y19	Z19	X20	Y20	Z20	X21	Y21	Z21	X22	Y22	Z22	X23	Y23	Z23	X24	Y24	Z24	X25	Y25	Z25	X26	Y26	Z26	X27	Y27	Z27	X28	Y28	Z28	X29	Y29	Z29	X30	Y30	Z30	X31	Y31	Z31	X32	Y32	Z32	X33	Y33	Z33	X34	Y34	Z34	X35	Y35	Z35	X36	Y36	Z36	X37	Y37	Z37

	170	1.78333	840.304	767.768	-204.940	816.106	773.983	-127.117	825.384	772.013	-282.457	789.563	418.698	-169.992	1006.923	431.965	-298.783	734.903	62.750	-198.183	1068.069	71.314	-316.108	950.449	841.282	-197.907	942.912	842.883	-71.713	957.985	839.682	-324.101	706.244	922.947	-179.834	705.998	917.597	-233.239	782.549	410.690	-99.288	1012.531	438.367	-369.775	792.907	430.755	-246.157	997.874	404.338	-204.542	723.358	61.615	-161.473	1054.302	70.758	-353.127	740.843	75.737	-233.943	1063.295	86.398	-275.269	765.704	1347.239	-204.161	887.004	1267.285	-171.819	885.313	1269.085	-253.765	868.581	1264.724	-224.867	912.744	1186.224	-226.114	948.235	540.474	-57.785	1074.615	663.731	-276.394	919.934	569.362	-81.879	1026.396	655.003	-290.869	886.250	502.010	-101.534	1046.128	583.678	-287.935	833.448	190.648	-156.405	1035.425	182.684	-416.089	788.870	205.642	-168.585	1034.877	192.469	-369.258	840.393	42.073	-186.762	1167.864	75.689	-323.516
	171	1.79167	844.449	767.643	-205.560	819.851	773.931	-127.818	829.909	771.867	-283.108	792.472	418.546	-170.031	1010.134	431.716	-297.687	735.282	63.050	-198.329	1077.884	71.657	-315.301	954.569	841.147	-197.971	946.397	842.824	-71.779	962.742	839.469	-324.163	710.286	922.941	-181.083	710.305	917.484	-234.428	784.893	410.736	-99.364	1016.120	437.930	-368.664	795.986	429.804	-245.400	1000.064	404.018	-202.792	723.664	61.999	-161.638	1064.364	70.929	-352.408	741.664	76.371	-234.085	1071.718	86.411	-274.342	769.274	1346.978	-204.780	890.586	1267.553	-171.856	889.330	1269.128	-254.448	872.432	1264.580	-225.416	916.880	1186.428	-226.093	950.614	540.224	-56.948	1078.531	662.760	-275.547	922.673	569.284	-81.582	1030.420	654.035	-289.828	888.654	501.939	-100.794	1049.476	582.938	-286.791	834.720	190.294	-156.356	1043.877	182.820	-415.232	791.013	206.123	-168.539	1042.395	192.140	-368.394	840.480	42.095	-186.704	1177.700	77.315	-321.591
	172	1.80000	848.627	767.573	-206.159	823.651	773.908	-128.500	834.475	771.773	-283.738	795.445	418.408	-170.066	1013.170	431.365	-296.701	735.670	63.373	-198.457	1087.135	72.006	-314.446	958.735	841.052	-198.016	949.939	842.788	-71.857	967.531	839.316	-324.175	714.417	922.946	-182.379	714.687	917.420	-235.672	787.285	410.798	-99.442	1019.574	437.429	-367.655	800.797	429.400	-245.935	1000.806	403.860	-200.531	723.979	62.409	-161.788	1073.846	71.106	-351.632	743.518	78.149	-234.142	1080.106	86.239	-273.389	772.808	1346.675	-205.713	894.161	1267.540	-172.545	893.228	1268.669	-255.060	876.298	1264.442	-226.067	920.769	1186.158	-226.199	952.984	540.004	-56.101	1082.397	661.748	-274.617	924.635	569.665	-80.353	1034.620	652.819	-288.903	891.782	501.543	-100.457	1052.684	581.796	-285.422	836.003	189.976	-156.297	1051.832	182.899	-414.332	796.964	207.621	-167.740	1049.752	191.602	-367.305	840.562	42.129	-186.637	1186.935	78.949	-319.760
	173	1.80833	852.844	767.557	-206.706	827.516	773.915	-129.143	839.082	771.722	-284.327	798.467	418.296	-170.105	1016.028	430.906	-295.823	736.054	63.714	-198.565	1095.809	72.341	-313.560	962.951	840.995	-198.036	953.553	842.776	-71.940	972.348	839.213	-324.132	718.641	922.957	-183.719	719.143	917.402	-236.969	789.727	410.881	-99.530	1022.889	436.860	-366.744	805.518	428.906	-246.637	999.956	403.796	-199.563	724.292	62.843	-161.916	1082.730	71.274	-350.816	741.736	78.368	-234.407	1087.717	86.003	-272.386	776.610	1346.373	-206.765	897.694	1267.116	-173.572	896.871	1268.139	-255.746	880.218	1264.302	-226.798	924.225	1185.617	-226.918	955.375	539.813	-55.269	1086.205	660.711	-273.591	926.872	569.597	-79.547	1038.830	651.789	-288.359	894.783	501.212	-100.204	1055.683	580.654	-284.419	837.280	189.683	-156.238	1059.276	182.908	-413.403	793.638	206.877	-167.668	1056.475	191.052	-366.162	840.643	42.172	-186.566	1195.575	80.532	-318.078
	174	1.81667	857.114	767.584	-207.183	831.457	773.947	-129.736	843.734	771.702	-284.864	801.519	418.213	-170.156	1018.711	430.336	-295.049	736.416	64.070	-198.650	1103.892	72.640	-312.659	967.225	840.968	-198.028	957.253	842.792	-72.021	977.197	839.144	-324.035	722.959	922.975	-185.095	723.670	917.418	-238.310	792.217	410.983	-99.633	1026.068	436.222	-365.926	807.987	428.282	-245.836	1001.263	403.538	-198.740	724.592	63.296	-162.018	1091.002	71.407	-349.976	741.764	77.859	-234.496	1094.771	85.970	-271.419	780.954	1345.934	-207.775	901.248	1266.893	-174.166	901.102	1268.298	-256.615	884.195	1264.178	-227.557	928.233	1185.647	-227.803	957.821	539.647	-54.475	1089.959	659.658	-272.460	930.384	569.307	-79.636	1042.455	650.962	-287.715	896.822	501.126	-99.522	1058.785	580.004	-283.480	838.537	189.402	-156.192	1066.196	182.831	-412.465	793.022	205.819	-167.998	1062.687	190.739	-365.212	840.729	42.219	-186.496	1203.630	82.011	-316.598
	175	1.82500	861.455	767.638	-207.586	835.482	773.999	-130.279	848.442	771.694	-285.351	804.579	418.162	-170.223	1021.224	429.658	-294.373	736.744	64.438	-198.710	1111.378	72.872	-311.760	971.566	840.961	-197.996	961.044	842.833	-72.096	982.088	839.090	-323.896	727.367	922.997	-186.498	728.263	917.451	-239.687	794.749	411.105	-99.754	1029.119	435.515	-365.194	812.233	427.575	-245.588	1003.305	403.390	-197.184	724.869	63.767	-162.093	1098.652	71.477	-349.128	742.567	77.654	-234.513	1102.065	86.194	-270.545	785.326	1345.669	-208.753	905.387	1266.821	-175.105	905.683	1268.425	-257.456	888.215	1264.102	-228.292	932.772	1185.741	-228.746	960.356	539.491	-53.742	1093.672	658.586	-271.221	933.640	569.104	-79.357	1046.246	650.316	-286.927	899.920	501.363	-98.861	1062.323	579.168	-282.169	839.766	189.120	-156.168	1072.582	182.655	-411.537	794.439	205.260	-168.252	1068.826	190.800	-364.313	840.824	42.267	-186.431	1211.110	83.345	-315.364
	176	1.83333	865.882	767.692	-207.928	839.591	774.062	-130.790	853.215	771.682	-285.803	807.633	418.134	-170.309	1023.578	428.877	-293.786	737.030	64.818	-198.748	1118.269	73.008	-310.875	975.979	840.961	-197.953	964.924	842.892	-72.167	987.035	839.031	-323.739	731.858	923.023	-187.919	732.920	917.485	-241.087	797.319	411.242	-99.893	1032.053	434.736	-364.539	816.688	427.578	-246.193	1004.177	403.304	-195.772	725.120	64.251	-162.140	1105.679	71.454	-348.283	743.185	78.169	-234.523	1109.372	86.499	-269.745	788.955	1345.708	-209.853	909.647	1266.798	-175.947	909.786	1268.279	-258.005	892.290	1264.106	-229.000	937.057	1185.681	-229.375	963.005	539.333	-53.089	1097.362	657.481	-269.877	935.453	568.841	-78.572	1050.569	649.662	-285.647	903.390	501.732	-98.531	1065.830	578.126	-280.647	840.969	188.829	-156.168	1078.424	182.365	-410.636	796.727	205.196	-168.063	1074.814	190.861	-363.500	840.931	42.314	-186.372	1218.028	84.506	-314.406
